<svg xmlns="http://www.w3.org/2000/svg" id="uuid-f5ad896c-eb48-4e39-a70f-dee1a6e39d88" data-name="Layer 1" viewBox="0 0 512 200.488"><path d="M512,134.551c0,31.591-19.112,31.667-19.112,31.667H18.988c-1.919,0-3.469-1.556-3.469-3.475v-.684c0-.959.386-1.825,1.012-2.457.632-.626,1.498-1.012,2.457-1.012l7.4-6.64,13.397-81.761h18.767l3.358.649s-2.861-1.907,18.276-1.907,30.602,4.651,30.602,8.962c0,3.457-9.524,8.266-13.291,10.033l21.511-.532,1.919.79c4.809-2.381,10.062-1.702,13.783-1.702,4.499,0,4.879,3.013,4.879,3.013v10.068s10.554.936,13.011-2.153c2.463-3.089,10.559-1.919,10.559-1.919l10.448-22.862s7.149-5.493,15.509-5.493,11.273,7.155,11.273,7.155v25.922l-5.47,23.915c.825-3.434,8.202-30.894,32.883-30.894,26.325,0,43.8,21.441,43.8,21.441h10.185l12.63-44.484h79.088c3.13,0,2.293,1.79,2.293,1.79-8.284,4.235-12.736,12.589-12.736,12.589v12.443l5.944,1.983s6.026-4.885,12.624-4.885,9.542,6.067,9.542,6.067c0,0,10.437,4.072,15.21-.164,4.78-4.236,15.351-3.44,15.351-3.44l11.636-23.026s11.729-7.5,15.509-7.5,8.869,7.786,8.869,7.786v23.289s1.375,23.81,3.434,11.332c2.059-12.478,15.111-22.435,23.693-22.435s27.127,16.942,27.127,48.532Z" style="fill: #8cc63f;"></path><path d="M510.321,130.507c0,31.591-19.112,31.667-19.112,31.667H17.31c-1.919,0-3.469-1.556-3.469-3.475v-.684c0-.959.386-1.825,1.012-2.457.632-.626,1.498-1.012,2.457-1.012l7.4-6.64,13.397-81.761h18.767l3.358.649s-2.861-1.907,18.276-1.907,30.602,4.651,30.602,8.962c0,3.457-9.524,8.266-13.291,10.033l21.511-.532,1.919.79c4.809-2.381,10.062-1.702,13.783-1.702,4.499,0,4.879,3.013,4.879,3.013v10.068s10.554.936,13.011-2.153c2.463-3.089,10.559-1.919,10.559-1.919l10.448-22.862s7.149-5.493,15.509-5.493,11.273,7.155,11.273,7.155v25.922l-5.47,23.915c.825-3.434,8.202-30.894,32.883-30.894,26.325,0,43.8,21.441,43.8,21.441h10.185l12.63-44.484h79.088c3.13,0,2.293,1.79,2.293,1.79-8.284,4.235-12.736,12.589-12.736,12.589v12.443l5.944,1.983s6.026-4.885,12.624-4.885,9.542,6.067,9.542,6.067c0,0,10.437,4.072,15.21-.164,4.78-4.236,15.351-3.44,15.351-3.44l11.636-23.026s11.729-7.5,15.509-7.5,8.869,7.786,8.869,7.786v23.289s1.375,23.81,3.434,11.332c2.059-12.478,15.111-22.435,23.693-22.435s27.127,16.942,27.127,48.532Z" style="fill: #fbb03b;"></path><path d="M506.43,125.423c0,31.591-19.112,31.667-19.112,31.667H13.418c-1.919,0-3.469-1.556-3.469-3.475v-.684c0-.959.386-1.825,1.012-2.457.632-.626,1.498-1.012,2.457-1.012l7.4-6.64,13.397-81.761h18.767l3.358.649s-2.861-1.907,18.276-1.907,30.602,4.651,30.602,8.962c0,3.457-9.524,8.266-13.291,10.033l21.511-.532,1.919.79c4.809-2.381,10.062-1.702,13.783-1.702,4.499,0,4.879,3.013,4.879,3.013v10.068s10.554.936,13.011-2.153c2.463-3.089,10.559-1.919,10.559-1.919l10.448-22.862s7.149-5.493,15.509-5.493,11.273,7.155,11.273,7.155v25.922l-5.47,23.915c.825-3.434,8.202-30.894,32.883-30.894,26.325,0,43.8,21.441,43.8,21.441h10.185l12.63-44.484h79.088c3.13,0,2.293,1.79,2.293,1.79-8.284,4.235-12.736,12.589-12.736,12.589v12.443l5.944,1.983s6.026-4.885,12.624-4.885,9.542,6.067,9.542,6.067c0,0,10.437,4.072,15.21-.164,4.78-4.236,15.351-3.44,15.351-3.44l11.636-23.026s11.729-7.5,15.509-7.5,8.869,7.786,8.869,7.786v23.289s1.375,23.81,3.434,11.332c2.059-12.478,15.111-22.435,23.693-22.435s27.127,16.942,27.127,48.532Z" style="fill: #e50d15;"></path><path d="M500.02,119.471c0,31.591-19.112,31.667-19.112,31.667H7.008c-1.919,0-3.469-1.556-3.469-3.475v-.684c0-.959.386-1.825,1.012-2.457.632-.626,1.498-1.012,2.457-1.012l7.4-6.64,13.397-81.761h18.767l3.358.649s-2.861-1.907,18.276-1.907,30.602,4.651,30.602,8.962c0,3.457-9.524,8.266-13.291,10.033l21.511-.532,1.919.79c4.809-2.381,10.062-1.702,13.783-1.702,4.499,0,4.879,3.013,4.879,3.013v10.068s10.554.936,13.011-2.153c2.463-3.089,10.559-1.919,10.559-1.919l10.448-22.862s7.149-5.493,15.509-5.493,11.273,7.155,11.273,7.155v25.922l-5.47,23.915c.825-3.434,8.202-30.894,32.883-30.894,26.325,0,43.8,21.441,43.8,21.441h10.185l12.63-44.484h79.088c3.13,0,2.293,1.79,2.293,1.79-8.284,4.235-12.736,12.589-12.736,12.589v12.443l5.944,1.983s6.026-4.885,12.624-4.885,9.542,6.067,9.542,6.067c0,0,10.437,4.072,15.21-.164,4.78-4.236,15.351-3.44,15.351-3.44l11.636-23.026s11.729-7.5,15.509-7.5,8.869,7.786,8.869,7.786v23.289s1.375,23.81,3.434,11.332c2.059-12.478,15.111-22.435,23.693-22.435s27.127,16.942,27.127,48.532Z" style="fill: #1b1464;"></path><g><path d="M448.744,81.621c-8.699,0-17.035,18.141-17.035,18.141v-38.804c0-1.375-.667-2.732-1.726-3.615l-3.574-2.972c-1.509-1.258-3.604-1.556-5.405-.772l-13.923,6.049,3.054,3.955c.69.901,1.071,2.001,1.071,3.136v66.165c0,7.172-3.51,9.764-3.51,9.764l19.206.064c2.662.006,4.826-2.153,4.826-4.815v-5.856s4.809,12.057,12.899,12.057c9.612,0,22.049-15.871,22.049-33.802s-9.231-28.695-17.931-28.695ZM434.417,129.866h-2.691v-22.95s1.205-9.097,6.581-9.097,8.073,6.64,8.073,12.706-4.066,19.34-11.963,19.34Z" style="fill: #fbb03b;"></path><path d="M405.4,136.945l-17.626,7.629s-8.085-2.861-8.085-8.278v-8.489l-8.284,11.332s-3.147,5.435-10.758,5.435-15.222-8.126-15.222-15.222v-31.362s-.064-3.902-5.037-8.869c0,0,12.42-7.535,17.229-7.535s8.641,6.388,8.641,6.388v35.311s.801,5.435,6.81,5.435,6.622-5.663,6.622-5.663v-25.237s-1.03-5.324-4.926-8.184c0,0,10.267-8.05,16.866-8.05,5.99,0,8.734,6.219,8.734,6.219v37.201s-.532,7.435,5.037,11.94Z" style="fill: #fbb03b;"></path><path d="M339.528,142.743h-32.105s5.095-4.347,5.095-12.759v-35.083h-21.417v35.083c0,8.412,5.563,12.759,5.563,12.759h-32.105s5.095-4.347,5.095-12.759v-64.907c0-7.149-5.095-10.846-5.095-10.846h32.105s-5.563,3.697-5.563,10.846v27.993h21.417v-27.993c0-7.149-5.095-10.846-5.095-10.846h32.105s-5.563,3.697-5.563,10.846v64.907c0,8.412,5.563,12.759,5.563,12.759Z" style="fill: #fbb03b;"></path><path d="M81.024,142.743h-22.429s-3.551-.287-7.558-8.243l-22.739-43.811v39.295c0,8.412,5.563,12.759,5.563,12.759H1.755s5.095-4.347,5.095-12.759v-64.907c0-7.149-5.095-10.846-5.095-10.846h32.105s-5.563,3.697-5.563,10.846v19.516c1.755-8.061,7.629-24.29,26.94-30.824,0,0,12.209-4.271,21.06,5.651l-8.091,20.832s-9.84-8.395-19.229-8.395-18.691,7.547-18.691,14.953c0,6.336,6.061,6.26,6.061,6.26h10.77c2.246,0,4.446.749,6.178,2.188,1.615,1.34,3.545,3.381,5.125,6.336,3.434,6.412,22.605,41.15,22.605,41.15Z" style="fill: #fbb03b;"></path><rect x="234.687" y="100.651" width="28.042" height="4.178" style="fill: #fbb03b;"></rect><path d="M190.392,119.108s-10.015,7.44-10.015,13.22,9.214,11.732,23.464,11.732,28.958-7.783,28.958-24.494-26.955-18.914-26.955-18.914c0,0-15.166-2.432-15.166-11.131s13.163-7.898,33.021,13.621c0,0,10.502-9.529,5.322-14.708-5.179-5.179-30.332-9.157-35.711-5.151-5.38,4.006-14.651,11.503-14.651,19.458s11.961,15.738,24.895,18.142c12.934,2.404,19.916,7.955,19.916,12.018s-2.117,5.837-5.551,5.837-13.735-3.033-27.527-19.63Z" style="fill: #fbb03b;"></path><path d="M171.981,123.478v-60.689c0-1.977-.825-3.867-2.276-5.212l-2.656-2.451c-1.954-1.808-4.785-2.293-7.231-1.234l-13.379,5.815c3.832,4.633,4.92,10.244,4.92,10.244v20.323c-1.936-2.72-7.149-9.033-13.941-9.033-8.664,0-21.523,14.807-21.523,35.177s14.842,28.654,19.92,28.654,7.096-4.692,7.096-4.692l8.448-18.124v15.111s4.639,7.324,8.529,7.324,16.655-8.073,16.655-8.073c-2.954-3.744-4.563-8.371-4.563-13.139ZM151.36,120.155c-4.212,8.74-15.62,9.389-15.62-7.781s5.833-21.025,9.343-21.025c2.486,0,5.014,1.498,6.277,2.369v26.437Z" style="fill: #fbb03b;"></path><path d="M84.021,142.772h28.214s-3.72-5.208-3.72-10.072v-43.151c0-1.61-.743-3.129-2.013-4.118l-2.52-1.962c-2.155-1.678-5.038-2.086-7.574-1.073l-13.818,6.352s5.151,3.319,5.151,12.705v31.247s.172,7.096-3.72,10.072Z" style="fill: #fbb03b;"></path><rect x="83.907" y="71.445" width="26.554" height="2.442" style="fill: #fbb03b;"></rect></g><g><path d="M446.989,79.866c-8.699,0-17.035,18.141-17.035,18.141v-38.804c0-1.375-.667-2.732-1.726-3.615l-3.574-2.972c-1.509-1.258-3.604-1.556-5.405-.772l-13.923,6.049,3.054,3.955c.69.901,1.071,2.001,1.071,3.136v66.165c0,7.172-3.51,9.764-3.51,9.764l19.206.064c2.662.006,4.826-2.153,4.826-4.815v-5.856s4.809,12.057,12.899,12.057c9.612,0,22.049-15.871,22.049-33.802s-9.231-28.695-17.931-28.695ZM432.662,128.111h-2.691v-22.95s1.205-9.097,6.581-9.097,8.073,6.64,8.073,12.706-4.066,19.34-11.963,19.34Z" style="fill: #f9f9f9;"></path><path d="M403.645,135.19l-17.626,7.629s-8.085-2.861-8.085-8.278v-8.489l-8.284,11.332s-3.147,5.435-10.758,5.435-15.222-8.126-15.222-15.222v-31.362s-.064-3.902-5.037-8.869c0,0,12.42-7.535,17.229-7.535s8.641,6.388,8.641,6.388v35.311s.801,5.435,6.81,5.435,6.622-5.663,6.622-5.663v-25.237s-1.03-5.324-4.926-8.184c0,0,10.267-8.05,16.866-8.05,5.99,0,8.734,6.219,8.734,6.219v37.201s-.532,7.435,5.037,11.94Z" style="fill: #f9f9f9;"></path><path d="M337.773,140.987h-32.105s5.095-4.347,5.095-12.759v-35.083h-21.417v35.083c0,8.412,5.563,12.759,5.563,12.759h-32.105s5.095-4.347,5.095-12.759V63.322c0-7.149-5.095-10.846-5.095-10.846h32.105s-5.563,3.697-5.563,10.846v27.993h21.417v-27.993c0-7.149-5.095-10.846-5.095-10.846h32.105s-5.563,3.697-5.563,10.846v64.907c0,8.412,5.563,12.759,5.563,12.759Z" style="fill: #f9f9f9;"></path><path d="M79.269,140.987h-22.429s-3.551-.287-7.558-8.243l-22.739-43.811v39.295c0,8.412,5.563,12.759,5.563,12.759H0s5.095-4.347,5.095-12.759V63.322c0-7.149-5.095-10.846-5.095-10.846h32.105s-5.563,3.697-5.563,10.846v19.516c1.755-8.061,7.629-24.29,26.94-30.824,0,0,12.209-4.271,21.06,5.651l-8.091,20.832s-9.84-8.395-19.229-8.395-18.691,7.547-18.691,14.953c0,6.336,6.061,6.26,6.061,6.26h10.77c2.246,0,4.446.749,6.178,2.188,1.615,1.34,3.545,3.381,5.125,6.336,3.434,6.412,22.605,41.15,22.605,41.15Z" style="fill: #f9f9f9;"></path><rect x="232.932" y="98.896" width="28.042" height="4.178" style="fill: #f9f9f9;"></rect><path d="M188.637,117.353s-10.015,7.44-10.015,13.22,9.214,11.732,23.464,11.732,28.958-7.783,28.958-24.494-26.955-18.914-26.955-18.914c0,0-15.166-2.432-15.166-11.131s13.163-7.898,33.021,13.621c0,0,10.502-9.529,5.322-14.708-5.179-5.179-30.332-9.157-35.711-5.151s-14.651,11.503-14.651,19.458,11.961,15.738,24.895,18.142c12.934,2.404,19.916,7.955,19.916,12.018s-2.117,5.837-5.551,5.837-13.735-3.033-27.527-19.63Z" style="fill: #f9f9f9;"></path><path d="M170.226,121.723v-60.689c0-1.977-.825-3.867-2.276-5.212l-2.656-2.451c-1.954-1.808-4.785-2.293-7.231-1.234l-13.379,5.815c3.832,4.633,4.92,10.244,4.92,10.244v20.323c-1.936-2.72-7.149-9.033-13.941-9.033-8.664,0-21.523,14.807-21.523,35.177s14.842,28.654,19.92,28.654,7.096-4.692,7.096-4.692l8.448-18.124v15.111s4.639,7.324,8.529,7.324,16.655-8.073,16.655-8.073c-2.954-3.744-4.563-8.371-4.563-13.139ZM149.605,118.4c-4.212,8.74-15.62,9.389-15.62-7.781s5.833-21.025,9.343-21.025c2.486,0,5.014,1.498,6.277,2.369v26.437Z" style="fill: #f9f9f9;"></path><path d="M82.266,141.017h28.214s-3.72-5.208-3.72-10.072v-43.151c0-1.61-.743-3.129-2.013-4.118l-2.52-1.962c-2.155-1.678-5.038-2.086-7.574-1.073l-13.818,6.352s5.151,3.319,5.151,12.705v31.247s.172,7.096-3.72,10.072Z" style="fill: #f9f9f9;"></path><rect x="82.152" y="69.69" width="26.554" height="2.442" style="fill: #f9f9f9;"></rect></g><g><path d="M152.454,198.603v-20.768h7.634c3.49,0,6.172.902,8.044,2.706,1.872,1.804,2.808,4.373,2.808,7.707,0,3.315-.922,5.87-2.764,7.664s-4.48,2.691-7.912,2.691h-7.81ZM158.187,194.011h1.901c1.735,0,2.998-.468,3.788-1.404s1.185-2.398,1.185-4.388-.395-3.452-1.185-4.388-2.053-1.404-3.788-1.404h-1.901v11.584Z" style="fill: #1b1464;"></path><path d="M189.192,198.603v-20.768h5.733v20.768h-5.733Z" style="fill: #1b1464;"></path><path d="M214.055,198.603v-20.768h5.792l6.932,11.7v-11.7h5.733v20.768h-5.792l-6.932-11.115v11.115h-5.733Z" style="fill: #1b1464;"></path><polygon points="364.17 194.013 364.17 198.605 349.399 198.605 349.399 177.837 355.132 177.837 355.132 194.013 364.17 194.013" style="fill: #1b1464;"></polygon><path d="M418.807,198.603v-20.768h8.717c2.652,0,4.704.454,6.157,1.36,1.452.907,2.179,2.345,2.179,4.314,0,.839-.161,1.56-.483,2.165s-.804,1.087-1.448,1.448c-.644.361-1.433.6-2.369.716v.059c1.735.175,3.032.687,3.89,1.536s1.287,1.994,1.287,3.437c0,1.95-.722,3.393-2.165,4.329-1.443.936-3.5,1.404-6.172,1.404h-9.594ZM424.541,186.171h2.749c.819,0,1.497-.161,2.033-.483.536-.322.804-.814.804-1.477,0-.702-.263-1.209-.79-1.521-.526-.311-1.209-.468-2.048-.468h-2.749v3.949ZM424.541,194.215h3.48c.839,0,1.545-.17,2.121-.512.575-.341.863-.882.863-1.624s-.283-1.287-.848-1.638c-.566-.351-1.277-.526-2.136-.526h-3.48v4.3Z" style="fill: #1b1464;"></path><path d="M85.295,199.071c-1.93,0-3.652-.429-5.163-1.287-1.512-.858-2.701-2.091-3.569-3.7-.868-1.609-1.302-3.554-1.302-5.836,0-2.184.41-4.09,1.229-5.718.819-1.628,1.989-2.896,3.51-3.803,1.521-.907,3.324-1.36,5.411-1.36,2.847,0,5.065.692,6.654,2.077,1.589,1.385,2.608,3.403,3.057,6.055l-5.938.205c-.195-1.189-.624-2.111-1.287-2.765-.663-.653-1.492-.98-2.486-.98-.956,0-1.75.269-2.384.804-.634.536-1.107,1.277-1.419,2.223-.312.946-.468,2.033-.468,3.262,0,1.268.166,2.369.497,3.306.331.936.814,1.657,1.448,2.165.634.507,1.389.76,2.267.76,1.131,0,2.008-.346,2.633-1.039.624-.692,1.024-1.672,1.199-2.939l5.967.205c-.293,1.813-.858,3.34-1.696,4.578-.839,1.239-1.936,2.179-3.291,2.823-1.356.643-2.979.965-4.87.965Z" style="fill: #1b1464;"></path><path d="M123.671,199.071c-2.184,0-4.066-.439-5.645-1.316-1.58-.878-2.789-2.125-3.627-3.744-.839-1.618-1.258-3.54-1.258-5.763s.419-4.148,1.258-5.777c.838-1.628,2.048-2.886,3.627-3.773,1.579-.887,3.461-1.331,5.645-1.331,2.204,0,4.09.444,5.66,1.331,1.57.888,2.774,2.146,3.613,3.773.838,1.629,1.258,3.554,1.258,5.777s-.42,4.144-1.258,5.763c-.839,1.618-2.043,2.866-3.613,3.744-1.57.878-3.456,1.316-5.66,1.316ZM123.671,194.479c.975,0,1.808-.244,2.501-.731.692-.487,1.223-1.195,1.594-2.121.37-.926.556-2.052.556-3.379s-.186-2.457-.556-3.393c-.371-.936-.902-1.653-1.594-2.15-.692-.498-1.526-.746-2.501-.746s-1.809.249-2.501.746c-.692.497-1.224,1.214-1.594,2.15-.371.936-.556,2.067-.556,3.393s.185,2.453.556,3.379c.37.926.902,1.633,1.594,2.121.692.487,1.526.731,2.501.731Z" style="fill: #1b1464;"></path><path d="M270.627,187.607v10.998h-3.335l-.181-2.644c-.193.339-.433.655-.714.948-.649.679-1.48,1.211-2.486,1.591-1,.38-2.118.573-3.346.573-2.03,0-3.773-.456-5.236-1.363s-2.592-2.17-3.381-3.785c-.79-1.62-1.182-3.51-1.182-5.675,0-2.088.404-3.949,1.211-5.587.813-1.638,1.977-2.931,3.498-3.879s3.352-1.416,5.499-1.416c1.89,0,3.487.293,4.78.889,1.299.597,2.34,1.457,3.13,2.592.79,1.129,1.351,2.492,1.685,4.095l-5.938.234c-.176-1.035-.55-1.831-1.112-2.387-.567-.556-1.398-.831-2.486-.831-.936,0-1.732.263-2.387.79-.649.527-1.147,1.258-1.492,2.194-.339.936-.509,2.036-.509,3.305,0,1.246.158,2.34.48,3.276.322.936.813,1.661,1.48,2.176.661.515,1.509.778,2.545.778.72,0,1.34-.123,1.854-.369.521-.246.936-.597,1.258-1.053.322-.456.532-1.006.632-1.65h-3.89v-3.803h9.623Z" style="fill: #1b1464;"></path><path d="M320.995,199.071c-1.93,0-3.652-.429-5.163-1.287-1.512-.858-2.701-2.091-3.569-3.7-.868-1.609-1.302-3.554-1.302-5.836,0-2.184.41-4.09,1.229-5.718s1.989-2.896,3.51-3.803c1.521-.907,3.324-1.36,5.411-1.36,2.847,0,5.065.692,6.654,2.077,1.589,1.385,2.608,3.403,3.057,6.055l-5.938.205c-.195-1.189-.624-2.111-1.287-2.765-.663-.653-1.492-.98-2.486-.98-.956,0-1.75.269-2.384.804-.634.536-1.107,1.277-1.419,2.223-.312.946-.468,2.033-.468,3.262,0,1.268.166,2.369.497,3.306.331.936.814,1.657,1.448,2.165.634.507,1.389.76,2.267.76,1.131,0,2.008-.346,2.633-1.039.624-.692,1.024-1.672,1.199-2.939l5.967.205c-.293,1.813-.858,3.34-1.696,4.578-.839,1.239-1.936,2.179-3.291,2.823-1.356.643-2.979.965-4.87.965Z" style="fill: #1b1464;"></path><path d="M390.318,199.071c-1.833,0-3.427-.332-4.782-.995-1.356-.663-2.403-1.604-3.144-2.822-.742-1.219-1.112-2.657-1.112-4.314v-13.134h5.734v13.134c0,1.131.282,2.004.848,2.618s1.385.922,2.457.922c1.092,0,1.921-.307,2.486-.922s.848-1.487.848-2.618v-13.134h5.733v13.134c0,1.657-.371,3.096-1.111,4.314-.742,1.219-1.789,2.16-3.144,2.822-1.356.663-2.959.995-4.812.995Z" style="fill: #1b1464;"></path></g><g><path d="M85.412,177.367c2.847,0,5.065.692,6.654,2.077,1.589,1.385,2.608,3.403,3.057,6.055l-5.938.205c-.195-1.189-.624-2.111-1.287-2.765-.663-.653-1.492-.98-2.486-.98-.956,0-1.75.269-2.384.804-.634.536-1.107,1.277-1.419,2.223-.312.946-.468,2.033-.468,3.262,0,1.268.166,2.369.497,3.306.331.936.814,1.657,1.448,2.165.634.507,1.389.76,2.267.76,1.131,0,2.008-.346,2.633-1.039.624-.692,1.024-1.672,1.199-2.939l5.967.205c-.293,1.813-.858,3.34-1.696,4.578-.839,1.239-1.936,2.179-3.291,2.823-1.356.643-2.979.965-4.87.965-1.93,0-3.652-.429-5.163-1.287-1.512-.858-2.701-2.091-3.569-3.7-.868-1.609-1.302-3.554-1.302-5.836,0-2.184.41-4.09,1.229-5.718s1.989-2.896,3.51-3.803c1.521-.907,3.324-1.36,5.411-1.36M85.412,175.952c-2.336,0-4.4.525-6.136,1.56-1.749,1.042-3.111,2.517-4.049,4.382-.915,1.82-1.379,3.958-1.379,6.354,0,2.509.495,4.698,1.471,6.508.992,1.839,2.376,3.272,4.116,4.258,1.719.976,3.691,1.471,5.861,1.471,2.094,0,3.936-.371,5.477-1.102,1.581-.751,2.878-1.864,3.856-3.308.951-1.405,1.597-3.136,1.922-5.146l.256-1.584-1.604-.055-5.967-.205-1.275-.044-.175,1.264c-.135.976-.42,1.711-.848,2.186-.221.245-.626.571-1.582.571-.56,0-.999-.143-1.383-.45-.422-.338-.758-.854-.999-1.533-.276-.78-.416-1.733-.416-2.833,0-1.072.134-2.02.397-2.818.231-.7.554-1.218.989-1.586.373-.316.854-.47,1.47-.47.622,0,1.097.182,1.494.573.441.435.739,1.103.883,1.985l.201,1.228,1.243-.043,5.938-.205,1.616-.056-.27-1.594c-.503-2.97-1.688-5.287-3.522-6.885-1.848-1.609-4.399-2.425-7.584-2.425h0Z" style="fill: #f9f9f9;"></path><path d="M123.671,177.367c2.203,0,4.09.444,5.66,1.331,1.57.888,2.774,2.146,3.613,3.773.838,1.629,1.258,3.554,1.258,5.777s-.42,4.144-1.258,5.763c-.839,1.618-2.043,2.866-3.613,3.744-1.57.878-3.456,1.316-5.66,1.316-2.184,0-4.066-.439-5.645-1.316-1.58-.878-2.789-2.125-3.627-3.744-.839-1.618-1.258-3.54-1.258-5.763s.419-4.148,1.258-5.777c.838-1.628,2.048-2.886,3.627-3.773,1.579-.887,3.461-1.331,5.645-1.331M123.671,194.479c.975,0,1.808-.244,2.501-.731.692-.487,1.223-1.195,1.594-2.121.37-.926.556-2.052.556-3.379s-.186-2.457-.556-3.393c-.371-.936-.902-1.653-1.594-2.15-.692-.498-1.526-.746-2.501-.746s-1.809.249-2.501.746c-.692.497-1.224,1.214-1.594,2.15-.371.936-.556,2.067-.556,3.393s.185,2.453.556,3.379c.37.926.902,1.633,1.594,2.121.692.487,1.526.731,2.501.731M123.671,175.952c-2.419,0-4.551.509-6.338,1.512-1.818,1.022-3.229,2.489-4.192,4.359-.939,1.823-1.415,3.985-1.415,6.425s.477,4.6,1.416,6.414c.964,1.862,2.376,3.318,4.196,4.329,1.785.992,3.915,1.494,6.332,1.494,2.438,0,4.574-.503,6.35-1.496,1.808-1.011,3.214-2.467,4.178-4.328.94-1.815,1.416-3.973,1.416-6.414s-.476-4.6-1.414-6.424c-.964-1.87-2.368-3.336-4.174-4.358-1.779-1.005-3.917-1.514-6.356-1.514h0ZM123.671,193.064c-.683,0-1.234-.155-1.686-.473-.468-.33-.826-.817-1.095-1.489-.302-.754-.455-1.714-.455-2.854s.154-2.108.456-2.872c.271-.686.632-1.183,1.104-1.522.45-.324.998-.481,1.676-.481s1.226.157,1.675.48c.472.339.833.837,1.105,1.522.303.765.456,1.732.456,2.872s-.153,2.099-.455,2.854c-.269.673-.628,1.16-1.095,1.489-.452.318-1.004.473-1.686.473h0Z" style="fill: #f9f9f9;"></path><path d="M160.088,177.835c3.49,0,6.172.902,8.044,2.706,1.872,1.804,2.808,4.373,2.808,7.707,0,3.315-.922,5.87-2.764,7.664-1.843,1.794-4.48,2.691-7.912,2.691h-7.81v-20.768h7.634M158.187,194.011h1.901c1.735,0,2.998-.468,3.788-1.404s1.185-2.398,1.185-4.388-.395-3.452-1.185-4.388c-.79-.936-2.053-1.404-3.788-1.404h-1.901v11.584M160.088,176.42h-9.049v23.597h9.225c3.797,0,6.792-1.04,8.899-3.092,2.118-2.062,3.192-4.982,3.192-8.678,0-3.718-1.09-6.653-3.241-8.726-2.136-2.058-5.173-3.102-9.025-3.102h0ZM159.601,183.842h.487c1.291,0,2.202.303,2.707.902.557.66.851,1.861.851,3.475s-.294,2.816-.851,3.475c-.505.599-1.416.902-2.707.902h-.487v-8.754h0Z" style="fill: #f9f9f9;"></path><path d="M194.925,177.835v20.768h-5.733v-20.768h5.733M196.34,176.42h-8.562v23.597h8.562v-23.597h0Z" style="fill: #f9f9f9;"></path><path d="M232.512,177.835v20.768h-5.792l-6.932-11.115v11.115h-5.733v-20.768h5.792l6.932,11.7v-11.7h5.733M233.927,176.42h-8.562v7.952l-4.301-7.259-.411-.694h-8.012v23.597h8.562v-7.589l4.318,6.923.415.666h7.991v-23.597h0Z" style="fill: #f9f9f9;"></path><path d="M260.975,177.369c1.89,0,3.487.292,4.78.889,1.299.597,2.34,1.457,3.13,2.592.79,1.129,1.351,2.492,1.685,4.095l-5.938.234c-.176-1.035-.55-1.831-1.112-2.387-.567-.556-1.398-.831-2.486-.831-.936,0-1.732.263-2.387.79-.649.527-1.147,1.258-1.492,2.194-.339.936-.509,2.036-.509,3.305,0,1.246.158,2.34.48,3.276.322.936.813,1.661,1.48,2.176.661.515,1.509.778,2.545.778.72,0,1.34-.123,1.854-.369.521-.246.936-.597,1.258-1.053.322-.456.532-1.006.632-1.65h-3.89v-3.803h9.623v10.998h-3.335l-.181-2.644c-.193.339-.433.655-.714.948-.649.679-1.48,1.211-2.486,1.591-1,.38-2.118.573-3.346.573-2.03,0-3.773-.456-5.236-1.363-1.463-.907-2.592-2.17-3.381-3.785-.79-1.62-1.182-3.51-1.182-5.675,0-2.088.404-3.949,1.211-5.587.813-1.638,1.977-2.931,3.498-3.879s3.352-1.416,5.499-1.416M260.975,175.955c-2.41,0-4.512.548-6.247,1.63-1.737,1.082-3.089,2.58-4.017,4.45-.902,1.83-1.358,3.92-1.358,6.216,0,2.373.446,4.491,1.325,6.294.906,1.853,2.221,3.322,3.908,4.368,1.686,1.045,3.698,1.575,5.981,1.575,1.392,0,2.687-.224,3.849-.666.536-.203,1.035-.445,1.495-.726l.063.923h6.07v-13.717l.252-.01-.34-1.636c-.371-1.782-1.013-3.335-1.911-4.618-.927-1.332-2.172-2.365-3.698-3.066-1.463-.675-3.271-1.018-5.37-1.018h0ZM259.589,192.67c-.039-.026-.078-.054-.115-.083-.449-.347-.779-.843-1.011-1.52-.267-.778-.403-1.725-.403-2.816,0-1.097.143-2.047.424-2.823.255-.692.6-1.21,1.053-1.577.395-.318.886-.474,1.496-.474.704,0,1.207.144,1.497.427.344.34.583.884.707,1.613l.132.777h-3.779v6.477h0ZM259.866,192.824h2.554c-.006.003-.012.006-.018.009-.326.156-.745.233-1.251.233s-.932-.08-1.284-.242h0Z" style="fill: #f9f9f9;"></path><path d="M321.112,177.367c2.847,0,5.065.692,6.654,2.077,1.589,1.385,2.608,3.403,3.057,6.055l-5.938.205c-.195-1.189-.624-2.111-1.287-2.765-.663-.653-1.492-.98-2.486-.98-.956,0-1.75.269-2.384.804-.634.536-1.107,1.277-1.419,2.223-.312.946-.468,2.033-.468,3.262,0,1.268.166,2.369.497,3.306.331.936.814,1.657,1.448,2.165.634.507,1.389.76,2.267.76,1.131,0,2.008-.346,2.633-1.039.624-.692,1.024-1.672,1.199-2.939l5.967.205c-.292,1.813-.858,3.34-1.696,4.578-.839,1.239-1.936,2.179-3.291,2.823-1.356.643-2.979.965-4.87.965-1.93,0-3.652-.429-5.163-1.287-1.512-.858-2.701-2.091-3.569-3.7-.868-1.609-1.302-3.554-1.302-5.836,0-2.184.41-4.09,1.229-5.718s1.989-2.896,3.51-3.803c1.521-.907,3.324-1.36,5.411-1.36M321.112,175.952c-2.336,0-4.4.525-6.136,1.56-1.749,1.042-3.111,2.517-4.049,4.382-.915,1.82-1.379,3.958-1.379,6.354,0,2.509.495,4.698,1.471,6.508.992,1.839,2.376,3.272,4.116,4.258,1.719.976,3.691,1.471,5.861,1.471,2.094,0,3.936-.371,5.477-1.102,1.581-.751,2.878-1.864,3.856-3.308.951-1.405,1.598-3.136,1.922-5.146l.255-1.584-1.604-.055-5.967-.205-1.275-.044-.175,1.264c-.135.976-.42,1.711-.848,2.186-.221.245-.626.571-1.582.571-.56,0-.999-.143-1.383-.45-.422-.338-.758-.854-.999-1.533-.276-.78-.416-1.733-.416-2.833,0-1.072.134-2.02.397-2.818.231-.699.554-1.218.989-1.586.374-.316.854-.47,1.47-.47.622,0,1.097.182,1.494.573.441.435.739,1.103.883,1.985l.201,1.228,1.243-.043,5.938-.205,1.616-.056-.27-1.594c-.503-2.97-1.688-5.287-3.522-6.885-1.848-1.609-4.399-2.425-7.584-2.425h0Z" style="fill: #f9f9f9;"></path><path d="M355.132,177.837v16.176h9.038v4.592h-14.772v-20.768h5.733M356.547,176.423h-8.562v23.597h17.601v-7.422h-9.038v-16.176h0Z" style="fill: #f9f9f9;"></path><path d="M399.385,177.806v13.134c0,1.657-.371,3.096-1.111,4.314-.742,1.219-1.789,2.159-3.144,2.822-1.356.663-2.959.995-4.812.995-1.833,0-3.427-.332-4.782-.995-1.356-.663-2.403-1.604-3.144-2.822-.742-1.219-1.112-2.657-1.112-4.314v-13.134h5.734v13.134c0,1.131.282,2.004.848,2.618.566.614,1.385.922,2.457.922,1.092,0,1.921-.307,2.486-.922.566-.614.848-1.487.848-2.618v-13.134h5.733M400.8,176.391h-8.562v14.548c0,.759-.16,1.318-.474,1.659-.106.115-.428.465-1.446.465-.988,0-1.311-.35-1.417-.465-.314-.341-.474-.9-.474-1.659v-14.548h-8.563v14.548c0,1.914.443,3.613,1.318,5.05.88,1.448,2.136,2.578,3.732,3.358,1.544.755,3.363,1.138,5.404,1.138,2.06,0,3.888-.383,5.433-1.138,1.595-.78,2.85-1.91,3.732-3.358.874-1.439,1.317-3.138,1.317-5.05v-14.548h0Z" style="fill: #f9f9f9;"></path><path d="M427.524,177.835c2.652,0,4.704.454,6.157,1.36,1.452.907,2.179,2.345,2.179,4.314,0,.839-.161,1.56-.483,2.165-.322.604-.804,1.087-1.448,1.448-.644.361-1.433.6-2.369.716v.059c1.735.175,3.032.687,3.89,1.536s1.287,1.994,1.287,3.437c0,1.95-.722,3.393-2.165,4.329-1.443.936-3.5,1.404-6.172,1.404h-9.594v-20.768h8.717M424.541,186.171h2.749c.819,0,1.497-.161,2.033-.483.536-.322.804-.814.804-1.477,0-.702-.263-1.209-.79-1.521-.526-.311-1.209-.468-2.048-.468h-2.749v3.949M424.541,194.215h3.48c.839,0,1.545-.17,2.121-.512.575-.341.863-.882.863-1.624s-.283-1.287-.848-1.638c-.566-.351-1.277-.526-2.135-.526h-3.48v4.3M427.524,176.42h-10.132v23.597h11.009c2.978,0,5.249-.534,6.942-1.632,1.838-1.192,2.809-3.099,2.809-5.515,0-1.828-.574-3.323-1.707-4.443-.27-.266-.57-.507-.901-.721.443-.39.805-.847,1.082-1.367.43-.809.649-1.761.649-2.829,0-2.446-.984-4.353-2.844-5.514-1.699-1.06-3.958-1.575-6.907-1.575h0ZM425.955,183.637h1.335c.569,0,1.028.094,1.327.271.046.028.096.057.096.304,0,.193-.032.212-.118.264-.311.186-.75.281-1.305.281h-1.335v-1.12h0ZM425.955,191.33h2.066c.587,0,1.054.106,1.39.314.088.055.179.111.179.436,0,.306-.079.353-.17.407-.351.209-.822.314-1.399.314h-2.066v-1.47h0Z" style="fill: #f9f9f9;"></path></g><g><path d="M285.276,16.749c-.725-.357-1.603-.058-1.954.667-1.656,3.376-5.078,5.429-8.336,4.996-1.626-.216-3.2-1.059-4.393-2.176,2.299-.954,5.312-2.814,5.125-5.558-.094-1.287-.737-2.48-1.814-3.37-1.094-.901-2.516-1.346-3.797-1.188-2.352.293-3.686,2.352-4.218,4.195l-.064.146c-.257.608-.556,1.293-2.744,4.259-1.585,2.141-3.37,4.563-4.142,4.891-.503-.591-1.246-3.001-1.907-5.142-.468-1.533-.784-2.732-1.035-3.697-.603-2.305-.93-3.58-2.34-4.335-1.539-.819-3.492-.462-6.055,1.135l-.076-10.121c-.006-.801-.661-1.451-1.463-1.451h-.012c-.807.006-1.457.667-1.451,1.474l.094,12.905v.029l.076,9.928c.006.807.661,1.451,1.463,1.451h.012c.807-.006,1.457-.667,1.451-1.474l-.07-9.202c3.376-2.551,4.464-2.2,4.651-2.094.281.152.526,1.082.895,2.492.257.995.579,2.229,1.071,3.82,1.392,4.522,2.094,6.792,4.089,7.184.193.041.374.059.556.059,2.03,0,3.703-2.264,6.546-6.113.333-.45.626-.854.883-1.217.135.287.281.573.45.854.064.146.152.287.257.404,1.626,2.445,4.475,4.393,7.57,4.809.433.059.872.088,1.299.088,4.107,0,8.032-2.568,10.056-6.693.351-.725.053-1.603-.673-1.954ZM268.539,15.906c.018-.199.058-.415.117-.632.012-.053.023-.105.041-.152.287-.971.918-1.989,1.773-2.094.053-.012.111-.012.175-.012.456,0,.977.199,1.398.55.445.369.72.848.755,1.316.064.918-2.106,2.258-3.943,2.913-.257-.632-.374-1.275-.316-1.89Z" style="fill: #1b1464;"></path><path d="M243.325,3.487c0,.807-.655,1.463-1.463,1.463h-5.54c.316,2.791.515,8.635.515,21.201,0,.807-.649,1.463-1.463,1.463-.807,0-1.463-.655-1.463-1.463,0-14.251-.316-19.393-.509-21.201h-6.037c-.807,0-1.463-.655-1.463-1.463s.655-1.463,1.463-1.463h14.497c.807,0,1.463.655,1.463,1.463Z" style="fill: #1b1464;"></path></g></svg>